<svg id="Layer_1" xmlns="http://www.w3.org/2000/svg" viewBox="0 0 300 80"><style>.st0{fill:none;stroke:#000;stroke-miterlimit:10}.st1,.st2{fill:#534741}.st2{stroke:#000;stroke-miterlimit:10}</style><path class="st1" d="M9.6 73.5H5.9l-.1-39.2h3.8v17.5c5.1-5.7 10.7-12 15.7-17.5H30L16.5 49.5l12.4 24h-3.7L13.7 52l-4.1 4.3v17.2zM53.2 34.3v3.2H38.9v11.8h12.7V52H38.9v18.4h14.3v3.2h-18l-.1-39.2h18.1zM76.5 34.3v3.2H62.2v11.8h12.7V52H62.2v18.4h14.3v3.2h-18l-.1-39.2h18.1zM101.7 52.3c0 4.6-4.5 8.3-10 8.3h-6.2v12.9h-3.8l-.1-39.2h10c5.5 0 10 3.7 10 8.4v9.6zM85.5 37.5v20h6.2c3.3 0 6.2-2.4 6.2-5.1v-9.7c0-2.7-2.9-5.2-6.2-5.2h-6.2zM134.5 73.5h-5L121 47.7v25.8h-3.7l-.1-39.2h4.3L132 68.7l10.7-34.4h3.6v39.2h-3.9V47.9l-7.9 25.6zM161.8 73.5V54.6c-3.6-6.3-7.9-14.1-11.5-20.3h4.3l9.2 15.9c2.9-5.2 6.3-10.9 9.2-15.9h4.3l-11.6 20.3v18.9h-3.9zM192.8 65.5V42.6c0-4.6 5.5-8.4 11.8-8.4 5.9 0 10.6 3.7 10.6 8.4v2.6h-3.9v-2.6c0-2.7-3.2-5.2-6.7-5.2-4.1 0-7.9 2.4-7.9 5.2v22.9c0 2.7 3.7 5.2 7.9 5.2 3.6 0 6.7-2.4 6.7-5.2v-2.8h3.9v2.8c0 4.6-4.7 8.4-10.6 8.4-6.3-.1-11.7-3.8-11.8-8.4zM239.2 73.5l-2.1-6.8h-12.4l-2 6.8h-3.9l9.4-39.2h5.1l9.8 39.2h-3.9zm-2.7-9.5l-5.8-24.2c-1.8 7.6-3.5 14.9-5.6 24.2h11.4zM250.8 48.4c0 2.6 3.2 4.2 6.9 4.4 5.3.3 10.4 2.9 10.4 7v5.6c0 4.6-4.8 8.4-10.5 8.4-5.9 0-10.5-3.7-10.6-8.4v-3.8h3.8v3.8c0 2.7 3.2 5.2 6.8 5.2 3.8 0 6.7-2.4 6.7-5.2v-5.6c0-2.3-3.2-3.9-6.8-3.9-5.6 0-10.5-3.2-10.5-7.4v-5.8c0-4.6 4.7-8.4 10.6-8.4 5.9 0 10.5 3.7 10.5 8.4v3.9h-3.8v-3.9c0-2.9-3.2-5.2-6.7-5.2-3.9 0-6.7 2.4-6.7 5.2v5.7zM291.6 73.5l-2.1-6.8h-12.4l-2 6.8h-3.9l9.4-39.2h5.1l9.8 39.2h-3.9zm-2.7-9.5l-5.8-24.2c-1.8 7.6-3.5 14.9-5.6 24.2h11.4zM239.8 8.4l38.1 21h7.3l-45.4-25-45.4 25h7.2z"/></svg>