<?xml version="1.0" encoding="utf-8"?>
<!-- Generator: Adobe Illustrator 21.1.0, SVG Export Plug-In . SVG Version: 6.00 Build 0)  -->
<svg version="1.1" id="Layer_1" xmlns="http://www.w3.org/2000/svg" xmlns:xlink="http://www.w3.org/1999/xlink" x="0px" y="0px"
	 viewBox="0 0 300 80" style="enable-background:new 0 0 300 80;" xml:space="preserve">
<style type="text/css">
	.st0{fill:none;stroke:#000000;stroke-miterlimit:10;}
	.st1{fill:#534741;}
	.st2{fill:#534741;stroke:#000000;stroke-miterlimit:10;}
</style>
<path class="st0" d="M257.8-115.3"/>
<g>
	<g>
		<path class="st1" d="M9.6,73.5H5.9L5.8,34.3h3.8v17.5c5.1-5.7,10.7-12,15.7-17.5H30L16.5,49.5l12.4,24h-3.7L13.7,52l-4.1,4.3V73.5
			z"/>
		<path class="st1" d="M53.2,34.3v3.2H38.9v11.8h12.7V52H38.9v18.4h14.3v3.2h-18l-0.1-39.2H53.2z"/>
		<path class="st1" d="M76.5,34.3v3.2H62.2v11.8h12.7V52H62.2v18.4h14.3v3.2h-18l-0.1-39.2H76.5z"/>
		<path class="st1" d="M101.7,52.3c0,4.6-4.5,8.3-10,8.3h-6.2v12.9h-3.8l-0.1-39.2h10c5.5,0,10,3.7,10,8.4V52.3z M85.5,37.5v20h6.2
			c3.3,0,6.2-2.4,6.2-5.1v-9.7c0-2.7-2.9-5.2-6.2-5.2H85.5z"/>
		<path class="st1" d="M134.5,73.5h-5L121,47.7v25.8h-3.7l-0.1-39.2h4.3L132,68.7l10.7-34.4h3.6v39.2h-3.9V47.9L134.5,73.5z"/>
		<path class="st1" d="M161.8,73.5V54.6c-3.6-6.3-7.9-14.1-11.5-20.3h4.3l9.2,15.9c2.9-5.2,6.3-10.9,9.2-15.9h4.3l-11.6,20.3v18.9
			H161.8z"/>
		<path class="st1" d="M192.8,65.5V42.6c0-4.6,5.5-8.4,11.8-8.4c5.9,0,10.6,3.7,10.6,8.4v2.6h-3.9v-2.6c0-2.7-3.2-5.2-6.7-5.2
			c-4.1,0-7.9,2.4-7.9,5.2v22.9c0,2.7,3.7,5.2,7.9,5.2c3.6,0,6.7-2.4,6.7-5.2v-2.8h3.9v2.8c0,4.6-4.7,8.4-10.6,8.4
			C198.3,73.8,192.9,70.1,192.8,65.5z"/>
		<path class="st1" d="M239.2,73.5l-2.1-6.8h-12.4l-2,6.8h-3.9l9.4-39.2h5.1l9.8,39.2H239.2z M236.5,64l-5.8-24.2
			c-1.8,7.6-3.5,14.9-5.6,24.2H236.5z"/>
		<path class="st1" d="M250.8,48.4c0,2.6,3.2,4.2,6.9,4.4c5.3,0.3,10.4,2.9,10.4,7v5.6c0,4.6-4.8,8.4-10.5,8.4
			c-5.9,0-10.5-3.7-10.6-8.4v-3.8h3.8v3.8c0,2.7,3.2,5.2,6.8,5.2c3.8,0,6.7-2.4,6.7-5.2v-5.6c0-2.3-3.2-3.9-6.8-3.9
			c-5.6,0-10.5-3.2-10.5-7.4v-5.8c0-4.6,4.7-8.4,10.6-8.4c5.9,0,10.5,3.7,10.5,8.4v3.9h-3.8v-3.9c0-2.9-3.2-5.2-6.7-5.2
			c-3.9,0-6.7,2.4-6.7,5.2V48.4z"/>
		<path class="st1" d="M291.6,73.5l-2.1-6.8h-12.4l-2,6.8h-3.9l9.4-39.2h5.1l9.8,39.2H291.6z M288.9,64l-5.8-24.2
			c-1.8,7.6-3.5,14.9-5.6,24.2H288.9z"/>
	</g>
	<path class="st2" d="M236.8,32.4"/>
	<polygon class="st1" points="239.8,8.4 277.9,29.4 285.2,29.4 239.8,4.4 194.4,29.4 201.6,29.4 	"/>
</g>
</svg>
